# xmcd
#
# Track frame offsets: 
#        150
#        30650
#        50637
#        74557
#        92652
#        115820
#        138495
#        163055
#        186435
#        209617
#
# Disc length: 3094 seconds
#
# Revision: 0
# Processed by: cddbd v1.5.2PL0 Copyright (c) Steve Scherf et al.
# Submitted via: ExactAudioCopy v1.0b3
#
DISCID=990c140a
DTITLE=Hoai Nam, Huong Lan - Han Mac Tu
DYEAR=1996
DGENRE=
TTITLE0=Hoai Nam - Han Mac Tu
TTITLE1=Huong Lan - Ngay vui qua mau
TTITLE2=Hoai Nam - Thuong tinh nhan
TTITLE3=Huong Lan - Tinh khong hoi tiec
TTITLE4=Hoai Nam - Cuc tan vi ai
TTITLE5=Huong Lan, Duy Quang - Doi nga chia ly
TTITLE6=Hoai Nam - Dung trach dieu bong
TTITLE7=Huong Lan - Co the thoi
TTITLE8=Hoai Nam - Ly chieu chieu
TTITLE9=Huong Lan - Am tham
EXTD=
EXTT0=
EXTT1=
EXTT2=
EXTT3=
EXTT4=
EXTT5=
EXTT6=
EXTT7=
EXTT8=
EXTT9=
PLAYORDER=
